nColumns=19
nRows=59
DataType=double
version=3
OpenSimVersion=4.1
endheader
time	ground_force_1_vx	ground_force_1_vy	ground_force_1_vz	ground_force_1_px	ground_force_1_py	ground_force_1_pz	ground_force_1_mx	ground_force_1_my	ground_force_1_mz	ground_force_2_vx	ground_force_2_vy	ground_force_2_vz	ground_force_2_px	ground_force_2_py	ground_force_2_pz	ground_force_2_mx	ground_force_2_my	ground_force_2_mz
0	0	0	0	0.053828	0	-0.202163	0	0	0	0	0	0	0.711701	0	-0.282402	0	0	0
0.01	0	0	0	0.053828	0	-0.202163	0	0	0	0	0	0	0.711701	0	-0.282402	0	0	0
0.02	-7.80322	43.0499	3.11808	0.0592721	0.0054	-0.205575	0	0.0911201	0	0	0	0	0.711701	0	-0.282402	0	0	0
0.03	-11.5029	120.09	10.3219	0.0692568	0.006	-0.21247	0	0.022018	0	0	0	0	0.711701	0	-0.282402	0	0	0
0.04	-23.4801	182.752	15.1575	0.0737026	0.006	-0.215048	0	-0.258863	0	0	0	0	0.711701	0	-0.282402	0	0	0
0.05	-43.5076	224.74	16.0111	0.07759	0.006	-0.216565	0	-0.384595	0	0	0	0	0.711701	0	-0.282402	0	0	0
0.06	-59.639	266.487	18.0011	0.0815219	0.006	-0.217883	0	0.117827	0	0	0	0	0.711701	0	-0.282402	0	0	0
0.07	-73.5295	308.24	18.4628	0.0854574	0.006	-0.217807	0	1.06922	0	0	0	0	0.711701	0	-0.282402	0	0	0
0.08	-88.8536	356.307	15.4639	0.0910909	0.006	-0.216226	0	1.64656	0	0	0	0	0.711701	0	-0.282402	0	0	0
0.09	-104.975	424.012	6.13738	0.0994797	0.006	-0.212981	0	1.10909	0	0	0	0	0.711701	0	-0.282402	0	0	0
0.1	-122.517	504.055	-10.6437	0.109361	0.006	-0.208789	0	-0.0384784	0	0	0	0	0.711701	0	-0.282402	0	0	0
0.11	-138.124	567.107	-23.2971	0.117547	0.006	-0.205757	0	-0.229632	0	0	0	0	0.711701	0	-0.282402	0	0	0
0.12	-147.515	602.985	-28.4285	0.123556	0.006	-0.204069	0	0.377642	0	0	0	0	0.711701	0	-0.282402	0	0	0
0.13	-152.655	629.635	-35.0131	0.128289	0.006	-0.202562	0	0.595552	0	0	0	0	0.711701	0	-0.282402	0	0	0
0.14	-154.159	658.357	-43.0948	0.131971	0.006	-0.201207	0	0.581311	0	0	0	0	0.711701	0	-0.282402	0	0	0
0.15	-152.778	685.015	-46.7217	0.134614	0.006	-0.200553	0	0.871017	0	0	0	0	0.711701	0	-0.282402	0	0	0
0.16	-149.225	707.9	-46.6609	0.136549	0.006	-0.200365	0	1.23227	0	0	0	0	0.711701	0	-0.282402	0	0	0
0.17	-143.453	727.254	-46.0676	0.13792	0.006	-0.20031	0	1.37937	0	0	0	0	0.711701	0	-0.282402	0	0	0
0.18	-135.616	739.552	-44.1921	0.138879	0.006	-0.200407	0	1.45621	0	0	0	0	0.711701	0	-0.282402	0	0	0
0.19	-126.101	741.137	-40.902	0.139518	0.006	-0.200602	0	1.50876	0	0	0	0	0.711701	0	-0.282402	0	0	0
0.2	-115.193	731.53	-38.1296	0.139998	0.006	-0.200727	0	1.44396	0	0	0	0	0.711701	0	-0.282402	0	0	0
0.21	-103.38	712.401	-36.2015	0.140514	0.006	-0.200694	0	1.29608	0	0	0	0	0.711701	0	-0.282402	0	0	0
0.22	-91.9478	686.087	-34.7506	0.141154	0.006	-0.200444	0	1.13928	0	0	0	0	0.711701	0	-0.282402	0	0	0
0.23	-81.8563	655.787	-34.0137	0.142112	0.006	-0.199905	0	0.926288	0	0	0	0	0.711701	0	-0.282402	0	0	0
0.24	-72.6526	624.257	-33.6296	0.143561	0.006	-0.199126	0	0.666922	0	0	0	0	0.711701	0	-0.282402	0	0	0
0.25	-64.1453	593.564	-33.248	0.145705	0.006	-0.198078	0	0.414133	0	0	0	0	0.711701	0	-0.282402	0	0	0
0.26	-56.826	564.135	-32.4932	0.14837	0.006	-0.196885	0	0.181605	0	0	0	0	0.711701	0	-0.282402	0	0	0
0.27	-49.9933	536.056	-31.3554	0.151073	0.006	-0.1957	0	0.00038215	0	0	0	0	0.711701	0	-0.282402	0	0	0
0.28	-43.6333	511.223	-30.1334	0.153982	0.006	-0.194448	0	-0.146015	0	0	0	0	0.711701	0	-0.282402	0	0	0
0.29	-38.1642	490.042	-28.7444	0.157101	0.006	-0.193086	0	-0.295235	0	0	0	0	0.711701	0	-0.282402	0	0	0
0.3	-33.2663	471.819	-27.3835	0.160182	0.006	-0.191721	0	-0.446597	0	0	0	0	0.711701	0	-0.282402	0	0	0
0.31	-28.3284	456.388	-26.2365	0.163221	0.006	-0.190393	0	-0.602047	0	0	0	0	0.711701	0	-0.282402	0	0	0
0.32	-23.6185	444.01	-25.4018	0.166045	0.006	-0.189173	0	-0.783935	0	0	0	0	0.711701	0	-0.282402	0	0	0
0.33	-19.449	436.21	-24.9825	0.168835	0.006	-0.187947	0	-0.972067	0	0	0	0	0.711701	0	-0.282402	0	0	0
0.34	-16.1106	433.58	-25.0589	0.171952	0.006	-0.186787	0	-1.1648	0	0	0	0	0.711701	0	-0.282402	0	0	0
0.35	-13.7667	435.083	-25.5181	0.175295	0.006	-0.185778	0	-1.35666	0	0	0	0	0.711701	0	-0.282402	0	0	0
0.36	-11.9539	439.879	-26.1452	0.178833	0.006	-0.18502	0	-1.51955	0	0	0	0	0.711701	0	-0.282402	0	0	0
0.37	-10.2037	447.799	-26.5402	0.182445	0.006	-0.184448	0	-1.67558	0	0	0	0	0.711701	0	-0.282402	0	0	0
0.38	-8.6912	458.045	-26.6515	0.186057	0.006	-0.184044	0	-1.89833	0	0	0	0	0.711701	0	-0.282402	0	0	0
0.39	-7.13642	469.907	-26.5561	0.189668	0.006	-0.183918	0	-2.14916	0	0	0	0	0.711701	0	-0.282402	0	0	0
0.4	-5.12801	483.498	-26.4041	0.19326	0.006	-0.184014	0	-2.42734	0	0	0	0	0.711701	0	-0.282402	0	0	0
0.41	-2.48948	499.038	-26.3534	0.196754	0.006	-0.184124	0	-2.72823	0	0	0	0	0.711701	0	-0.282402	0	0	0
0.42	0.726096	516.321	-26.4918	0.200202	0.006	-0.184085	0	-3.04201	0	0	0	0	0.711701	0	-0.282402	0	0	0
0.43	4.61665	534.606	-27.0304	0.203671	0.006	-0.183863	0	-3.35674	0	0	0	0	0.711701	0	-0.282402	0	0	0
0.44	9.11236	552.882	-28.5456	0.207254	0.006	-0.183448	0	-3.64251	0	0	0	0	0.711701	0	-0.282402	0	0	0
0.45	13.816	571.174	-31.1102	0.211128	0.006	-0.182925	0	-3.92469	0	0	0	0	0.711701	0	-0.282402	0	0	0
0.46	18.2659	589.892	-34.1264	0.215397	0.006	-0.182322	0	-4.16614	0	0	0	0	0.711701	0	-0.282402	0	0	0
0.47	23.0229	609.145	-37.4141	0.219966	0.006	-0.181683	0	-4.2875	0	0	0	0	0.711701	0	-0.282402	0	0	0
0.48	28.3742	627.888	-40.8929	0.22462	0.006	-0.181037	0	-4.28661	0	0	0	0	0.711701	0	-0.282402	0	0	0
0.49	34.3141	645.36	-44.0468	0.229409	0.006	-0.180366	0	-4.22157	0	0	0	0	0.711701	0	-0.282402	0	0	0
0.5	40.7525	660.717	-46.3779	0.234197	0.006	-0.179827	0	-4.15123	0	0	0	0	0.711701	0	-0.282402	0	0	0
0.51	47.2652	673.001	-48.0211	0.239015	0.006	-0.179443	0	-4.06252	0	0	0	0	0.711701	0	-0.282402	0	0	0
0.52	52.5856	681.74	-49.1832	0.244166	0.006	-0.179055	0	-3.93822	0	0	0	0	0.711701	0	-0.282402	0	0	0
0.53	56.2757	687.563	-49.6471	0.249482	0.006	-0.17865	0	-3.83712	0	0	0	0	0.711701	0	-0.282402	0	0	0
0.54	60.1711	691.995	-49.1804	0.254639	0.006	-0.178353	0	-3.75246	0	0	0	0	0.711701	0	-0.282402	0	0	0
0.55	65.5851	696.045	-48.1251	0.259266	0.006	-0.178141	0	-3.65022	0	0	0	0	0.711701	0	-0.282402	0	0	0
0.56	72.6138	699.232	-46.4914	0.263194	0.006	-0.177992	0	-3.54561	0	0	0	0	0.711701	0	-0.282402	0	0	0
0.57	80.6443	699.864	-44.3433	0.266498	0.006	-0.177871	0	-3.46953	0	0	0	0	0.711701	0	-0.282402	0	0	0
0.58	88.8733	696.199	-41.9529	0.269413	0.006	-0.177783	0	-3.42827	0	7.63107	25.9944	-3.01203	0.71659	0.0042	-0.286319	0	0.561265	0
